<svg width="25" height="25" viewBox="0 0 25 25" fill="none" xmlns="http://www.w3.org/2000/svg">
<path d="M8.33203 12.5001C9.4371 12.5001 10.4969 12.0611 11.2783 11.2797C12.0597 10.4983 12.4987 9.43848 12.4987 8.33342C12.4987 7.22835 12.0597 6.16854 11.2783 5.38714C10.4969 4.60573 9.4371 4.16675 8.33203 4.16675C7.22696 4.16675 6.16715 4.60573 5.38575 5.38714C4.60435 6.16854 4.16536 7.22835 4.16536 8.33342C4.16536 9.43848 4.60435 10.4983 5.38575 11.2797C6.16715 12.0611 7.22696 12.5001 8.33203 12.5001ZM17.707 12.5001C18.5358 12.5001 19.3307 12.1708 19.9167 11.5848C20.5028 10.9987 20.832 10.2039 20.832 9.37508C20.832 8.54628 20.5028 7.75142 19.9167 7.16537C19.3307 6.57932 18.5358 6.25008 17.707 6.25008C16.8782 6.25008 16.0834 6.57932 15.4973 7.16537C14.9113 7.75142 14.582 8.54628 14.582 9.37508C14.582 10.2039 14.9113 10.9987 15.4973 11.5848C16.0834 12.1708 16.8782 12.5001 17.707 12.5001ZM4.42578 14.5834C3.80418 14.5834 3.20804 14.8303 2.7685 15.2699C2.32896 15.7094 2.08203 16.3056 2.08203 16.9272V17.1876C2.08203 17.1876 2.08203 21.8751 8.33203 21.8751C14.582 21.8751 14.582 17.1876 14.582 17.1876V16.9272C14.582 16.3056 14.3351 15.7094 13.8956 15.2699C13.456 14.8303 12.8599 14.5834 12.2383 14.5834H4.42578ZM17.707 20.3126C16.4872 20.3126 15.5529 20.124 14.8372 19.8355C15.2537 19.1326 15.5151 18.3487 15.6039 17.5365C15.614 17.4378 15.6206 17.3388 15.6237 17.2397V16.9272C15.625 16.0545 15.2883 15.2152 14.6841 14.5855C14.7195 14.584 14.7549 14.5833 14.7904 14.5834H20.6237C21.2315 14.5834 21.8144 14.8249 22.2442 15.2546C22.6739 15.6844 22.9154 16.2673 22.9154 16.8751C22.9154 16.8751 22.9154 20.3126 17.707 20.3126Z" fill="#1564FF"/>
</svg>
